<?xml version="1.0" encoding="utf-8" standalone="no"?>
<!DOCTYPE svg PUBLIC "-//W3C//DTD SVG 1.1//EN"
  "http://www.w3.org/Graphics/SVG/1.1/DTD/svg11.dtd">
<svg xmlns:xlink="http://www.w3.org/1999/xlink" width="712.46125pt" height="351.613125pt" viewBox="0 0 712.46125 351.613125" xmlns="http://www.w3.org/2000/svg" version="1.1">
 <metadata>
  <rdf:RDF xmlns:dc="http://purl.org/dc/elements/1.1/" xmlns:cc="http://creativecommons.org/ns#" xmlns:rdf="http://www.w3.org/1999/02/22-rdf-syntax-ns#">
   <cc:Work>
    <dc:type rdf:resource="http://purl.org/dc/dcmitype/StillImage"/>
    <dc:date>2026-08-13T18:30:34.885666</dc:date>
    <dc:format>image/svg+xml</dc:format>
    <dc:creator>
     <cc:Agent>
      <dc:title>Matplotlib v3.10.0, https://matplotlib.org/</dc:title>
     </cc:Agent>
    </dc:creator>
   </cc:Work>
  </rdf:RDF>
 </metadata>
 <defs>
  <style type="text/css">*{stroke-linejoin: round; stroke-linecap: butt}</style>
 </defs>
 <g id="figure_1">
  <g id="patch_1">
   <path d="M 0 351.613125
L 712.46125 351.613125
L 712.46125 0
L 0 0
z
" style="fill: #ffffff"/>
  </g>
  <g id="axes_1">
   <g id="patch_2">
    <path d="M 43.78125 327.456875
L 705.26125 327.456875
L 705.26125 22.318125
L 43.78125 22.318125
z
" style="fill: #ffffff"/>
   </g>
   <g id="matplotlib.axis_1">
    <g id="xtick_1">
     <g id="line2d_1">
      <defs>
       <path id="mce3adac7e4" d="M 0 0
L 0 3.5
" style="stroke: #000000; stroke-width: 0.8"/>
      </defs>
      <g>
       <use xlink:href="#mce3adac7e4" x="126.46625" y="327.456875" style="stroke: #000000; stroke-width: 0.8"/>
      </g>
     </g>
     <g id="text_1">
      <!-- fixed_rules -->
      <g transform="translate(99.468594 342.055313) scale(0.1 -0.1)">
       <defs>
        <path id="DejaVuSans-66" d="M 2375 4863
L 2375 4384
L 1825 4384
Q 1516 4384 1395 4259
Q 1275 4134 1275 3809
L 1275 3500
L 2222 3500
L 2222 3053
L 1275 3053
L 1275 0
L 697 0
L 697 3053
L 147 3053
L 147 3500
L 697 3500
L 697 3744
Q 697 4328 969 4595
Q 1241 4863 1831 4863
L 2375 4863
z
" transform="scale(0.015625)"/>
        <path id="DejaVuSans-69" d="M 603 3500
L 1178 3500
L 1178 0
L 603 0
L 603 3500
z
M 603 4863
L 1178 4863
L 1178 4134
L 603 4134
L 603 4863
z
" transform="scale(0.015625)"/>
        <path id="DejaVuSans-78" d="M 3513 3500
L 2247 1797
L 3578 0
L 2900 0
L 1881 1375
L 863 0
L 184 0
L 1544 1831
L 300 3500
L 978 3500
L 1906 2253
L 2834 3500
L 3513 3500
z
" transform="scale(0.015625)"/>
        <path id="DejaVuSans-65" d="M 3597 1894
L 3597 1613
L 953 1613
Q 991 1019 1311 708
Q 1631 397 2203 397
Q 2534 397 2845 478
Q 3156 559 3463 722
L 3463 178
Q 3153 47 2828 -22
Q 2503 -91 2169 -91
Q 1331 -91 842 396
Q 353 884 353 1716
Q 353 2575 817 3079
Q 1281 3584 2069 3584
Q 2775 3584 3186 3129
Q 3597 2675 3597 1894
z
M 3022 2063
Q 3016 2534 2758 2815
Q 2500 3097 2075 3097
Q 1594 3097 1305 2825
Q 1016 2553 972 2059
L 3022 2063
z
" transform="scale(0.015625)"/>
        <path id="DejaVuSans-64" d="M 2906 2969
L 2906 4863
L 3481 4863
L 3481 0
L 2906 0
L 2906 525
Q 2725 213 2448 61
Q 2172 -91 1784 -91
Q 1150 -91 751 415
Q 353 922 353 1747
Q 353 2572 751 3078
Q 1150 3584 1784 3584
Q 2172 3584 2448 3432
Q 2725 3281 2906 2969
z
M 947 1747
Q 947 1113 1208 752
Q 1469 391 1925 391
Q 2381 391 2643 752
Q 2906 1113 2906 1747
Q 2906 2381 2643 2742
Q 2381 3103 1925 3103
Q 1469 3103 1208 2742
Q 947 2381 947 1747
z
" transform="scale(0.015625)"/>
        <path id="DejaVuSans-5f" d="M 3263 -1063
L 3263 -1509
L -63 -1509
L -63 -1063
L 3263 -1063
z
" transform="scale(0.015625)"/>
        <path id="DejaVuSans-72" d="M 2631 2963
Q 2534 3019 2420 3045
Q 2306 3072 2169 3072
Q 1681 3072 1420 2755
Q 1159 2438 1159 1844
L 1159 0
L 581 0
L 581 3500
L 1159 3500
L 1159 2956
Q 1341 3275 1631 3429
Q 1922 3584 2338 3584
Q 2397 3584 2469 3576
Q 2541 3569 2628 3553
L 2631 2963
z
" transform="scale(0.015625)"/>
        <path id="DejaVuSans-75" d="M 544 1381
L 544 3500
L 1119 3500
L 1119 1403
Q 1119 906 1312 657
Q 1506 409 1894 409
Q 2359 409 2629 706
Q 2900 1003 2900 1516
L 2900 3500
L 3475 3500
L 3475 0
L 2900 0
L 2900 538
Q 2691 219 2414 64
Q 2138 -91 1772 -91
Q 1169 -91 856 284
Q 544 659 544 1381
z
M 1991 3584
L 1991 3584
z
" transform="scale(0.015625)"/>
        <path id="DejaVuSans-6c" d="M 603 4863
L 1178 4863
L 1178 0
L 603 0
L 603 4863
z
" transform="scale(0.015625)"/>
        <path id="DejaVuSans-73" d="M 2834 3397
L 2834 2853
Q 2591 2978 2328 3040
Q 2066 3103 1784 3103
Q 1356 3103 1142 2972
Q 928 2841 928 2578
Q 928 2378 1081 2264
Q 1234 2150 1697 2047
L 1894 2003
Q 2506 1872 2764 1633
Q 3022 1394 3022 966
Q 3022 478 2636 193
Q 2250 -91 1575 -91
Q 1294 -91 989 -36
Q 684 19 347 128
L 347 722
Q 666 556 975 473
Q 1284 391 1588 391
Q 1994 391 2212 530
Q 2431 669 2431 922
Q 2431 1156 2273 1281
Q 2116 1406 1581 1522
L 1381 1569
Q 847 1681 609 1914
Q 372 2147 372 2553
Q 372 3047 722 3315
Q 1072 3584 1716 3584
Q 2034 3584 2315 3537
Q 2597 3491 2834 3397
z
" transform="scale(0.015625)"/>
       </defs>
       <use xlink:href="#DejaVuSans-66"/>
       <use xlink:href="#DejaVuSans-69" transform="translate(35.205078 0)"/>
       <use xlink:href="#DejaVuSans-78" transform="translate(62.988281 0)"/>
       <use xlink:href="#DejaVuSans-65" transform="translate(119.042969 0)"/>
       <use xlink:href="#DejaVuSans-64" transform="translate(180.566406 0)"/>
       <use xlink:href="#DejaVuSans-5f" transform="translate(244.042969 0)"/>
       <use xlink:href="#DejaVuSans-72" transform="translate(294.042969 0)"/>
       <use xlink:href="#DejaVuSans-75" transform="translate(335.15625 0)"/>
       <use xlink:href="#DejaVuSans-6c" transform="translate(398.535156 0)"/>
       <use xlink:href="#DejaVuSans-65" transform="translate(426.318359 0)"/>
       <use xlink:href="#DejaVuSans-73" transform="translate(487.841797 0)"/>
      </g>
     </g>
    </g>
    <g id="xtick_2">
     <g id="line2d_2">
      <g>
       <use xlink:href="#mce3adac7e4" x="291.83625" y="327.456875" style="stroke: #000000; stroke-width: 0.8"/>
      </g>
     </g>
     <g id="text_2">
      <!-- random_forest -->
      <g transform="translate(255.540156 342.055313) scale(0.1 -0.1)">
       <defs>
        <path id="DejaVuSans-61" d="M 2194 1759
Q 1497 1759 1228 1600
Q 959 1441 959 1056
Q 959 750 1161 570
Q 1363 391 1709 391
Q 2188 391 2477 730
Q 2766 1069 2766 1631
L 2766 1759
L 2194 1759
z
M 3341 1997
L 3341 0
L 2766 0
L 2766 531
Q 2569 213 2275 61
Q 1981 -91 1556 -91
Q 1019 -91 701 211
Q 384 513 384 1019
Q 384 1609 779 1909
Q 1175 2209 1959 2209
L 2766 2209
L 2766 2266
Q 2766 2663 2505 2880
Q 2244 3097 1772 3097
Q 1472 3097 1187 3025
Q 903 2953 641 2809
L 641 3341
Q 956 3463 1253 3523
Q 1550 3584 1831 3584
Q 2591 3584 2966 3190
Q 3341 2797 3341 1997
z
" transform="scale(0.015625)"/>
        <path id="DejaVuSans-6e" d="M 3513 2113
L 3513 0
L 2938 0
L 2938 2094
Q 2938 2591 2744 2837
Q 2550 3084 2163 3084
Q 1697 3084 1428 2787
Q 1159 2491 1159 1978
L 1159 0
L 581 0
L 581 3500
L 1159 3500
L 1159 2956
Q 1366 3272 1645 3428
Q 1925 3584 2291 3584
Q 2894 3584 3203 3211
Q 3513 2838 3513 2113
z
" transform="scale(0.015625)"/>
        <path id="DejaVuSans-6f" d="M 1959 3097
Q 1497 3097 1228 2736
Q 959 2375 959 1747
Q 959 1119 1226 758
Q 1494 397 1959 397
Q 2419 397 2687 759
Q 2956 1122 2956 1747
Q 2956 2369 2687 2733
Q 2419 3097 1959 3097
z
M 1959 3584
Q 2709 3584 3137 3096
Q 3566 2609 3566 1747
Q 3566 888 3137 398
Q 2709 -91 1959 -91
Q 1206 -91 779 398
Q 353 888 353 1747
Q 353 2609 779 3096
Q 1206 3584 1959 3584
z
" transform="scale(0.015625)"/>
        <path id="DejaVuSans-6d" d="M 3328 2828
Q 3544 3216 3844 3400
Q 4144 3584 4550 3584
Q 5097 3584 5394 3201
Q 5691 2819 5691 2113
L 5691 0
L 5113 0
L 5113 2094
Q 5113 2597 4934 2840
Q 4756 3084 4391 3084
Q 3944 3084 3684 2787
Q 3425 2491 3425 1978
L 3425 0
L 2847 0
L 2847 2094
Q 2847 2600 2669 2842
Q 2491 3084 2119 3084
Q 1678 3084 1418 2786
Q 1159 2488 1159 1978
L 1159 0
L 581 0
L 581 3500
L 1159 3500
L 1159 2956
Q 1356 3278 1631 3431
Q 1906 3584 2284 3584
Q 2666 3584 2933 3390
Q 3200 3197 3328 2828
z
" transform="scale(0.015625)"/>
        <path id="DejaVuSans-74" d="M 1172 4494
L 1172 3500
L 2356 3500
L 2356 3053
L 1172 3053
L 1172 1153
Q 1172 725 1289 603
Q 1406 481 1766 481
L 2356 481
L 2356 0
L 1766 0
Q 1100 0 847 248
Q 594 497 594 1153
L 594 3053
L 172 3053
L 172 3500
L 594 3500
L 594 4494
L 1172 4494
z
" transform="scale(0.015625)"/>
       </defs>
       <use xlink:href="#DejaVuSans-72"/>
       <use xlink:href="#DejaVuSans-61" transform="translate(41.113281 0)"/>
       <use xlink:href="#DejaVuSans-6e" transform="translate(102.392578 0)"/>
       <use xlink:href="#DejaVuSans-64" transform="translate(165.771484 0)"/>
       <use xlink:href="#DejaVuSans-6f" transform="translate(229.248047 0)"/>
       <use xlink:href="#DejaVuSans-6d" transform="translate(290.429688 0)"/>
       <use xlink:href="#DejaVuSans-5f" transform="translate(387.841797 0)"/>
       <use xlink:href="#DejaVuSans-66" transform="translate(437.841797 0)"/>
       <use xlink:href="#DejaVuSans-6f" transform="translate(473.046875 0)"/>
       <use xlink:href="#DejaVuSans-72" transform="translate(534.228516 0)"/>
       <use xlink:href="#DejaVuSans-65" transform="translate(573.091797 0)"/>
       <use xlink:href="#DejaVuSans-73" transform="translate(634.615234 0)"/>
       <use xlink:href="#DejaVuSans-74" transform="translate(686.714844 0)"/>
      </g>
     </g>
    </g>
    <g id="xtick_3">
     <g id="line2d_3">
      <g>
       <use xlink:href="#mce3adac7e4" x="457.20625" y="327.456875" style="stroke: #000000; stroke-width: 0.8"/>
      </g>
     </g>
     <g id="text_3">
      <!-- svm -->
      <g transform="translate(446.771875 342.055313) scale(0.1 -0.1)">
       <defs>
        <path id="DejaVuSans-76" d="M 191 3500
L 800 3500
L 1894 563
L 2988 3500
L 3597 3500
L 2284 0
L 1503 0
L 191 3500
z
" transform="scale(0.015625)"/>
       </defs>
       <use xlink:href="#DejaVuSans-73"/>
       <use xlink:href="#DejaVuSans-76" transform="translate(52.099609 0)"/>
       <use xlink:href="#DejaVuSans-6d" transform="translate(111.279297 0)"/>
      </g>
     </g>
    </g>
    <g id="xtick_4">
     <g id="line2d_4">
      <g>
       <use xlink:href="#mce3adac7e4" x="622.57625" y="327.456875" style="stroke: #000000; stroke-width: 0.8"/>
      </g>
     </g>
     <g id="text_4">
      <!-- xgboost -->
      <g transform="translate(602.584844 342.055313) scale(0.1 -0.1)">
       <defs>
        <path id="DejaVuSans-67" d="M 2906 1791
Q 2906 2416 2648 2759
Q 2391 3103 1925 3103
Q 1463 3103 1205 2759
Q 947 2416 947 1791
Q 947 1169 1205 825
Q 1463 481 1925 481
Q 2391 481 2648 825
Q 2906 1169 2906 1791
z
M 3481 434
Q 3481 -459 3084 -895
Q 2688 -1331 1869 -1331
Q 1566 -1331 1297 -1286
Q 1028 -1241 775 -1147
L 775 -588
Q 1028 -725 1275 -790
Q 1522 -856 1778 -856
Q 2344 -856 2625 -561
Q 2906 -266 2906 331
L 2906 616
Q 2728 306 2450 153
Q 2172 0 1784 0
Q 1141 0 747 490
Q 353 981 353 1791
Q 353 2603 747 3093
Q 1141 3584 1784 3584
Q 2172 3584 2450 3431
Q 2728 3278 2906 2969
L 2906 3500
L 3481 3500
L 3481 434
z
" transform="scale(0.015625)"/>
        <path id="DejaVuSans-62" d="M 3116 1747
Q 3116 2381 2855 2742
Q 2594 3103 2138 3103
Q 1681 3103 1420 2742
Q 1159 2381 1159 1747
Q 1159 1113 1420 752
Q 1681 391 2138 391
Q 2594 391 2855 752
Q 3116 1113 3116 1747
z
M 1159 2969
Q 1341 3281 1617 3432
Q 1894 3584 2278 3584
Q 2916 3584 3314 3078
Q 3713 2572 3713 1747
Q 3713 922 3314 415
Q 2916 -91 2278 -91
Q 1894 -91 1617 61
Q 1341 213 1159 525
L 1159 0
L 581 0
L 581 4863
L 1159 4863
L 1159 2969
z
" transform="scale(0.015625)"/>
       </defs>
       <use xlink:href="#DejaVuSans-78"/>
       <use xlink:href="#DejaVuSans-67" transform="translate(59.179688 0)"/>
       <use xlink:href="#DejaVuSans-62" transform="translate(122.65625 0)"/>
       <use xlink:href="#DejaVuSans-6f" transform="translate(186.132812 0)"/>
       <use xlink:href="#DejaVuSans-6f" transform="translate(247.314453 0)"/>
       <use xlink:href="#DejaVuSans-73" transform="translate(308.496094 0)"/>
       <use xlink:href="#DejaVuSans-74" transform="translate(360.595703 0)"/>
      </g>
     </g>
    </g>
   </g>
   <g id="matplotlib.axis_2">
    <g id="ytick_1">
     <g id="line2d_5">
      <path d="M 43.78125 327.456875
L 705.26125 327.456875
" clip-path="url(#p8c7d64fd58)" style="fill: none; stroke: #b0b0b0; stroke-opacity: 0.25; stroke-width: 0.8; stroke-linecap: square"/>
     </g>
     <g id="line2d_6">
      <defs>
       <path id="m105f1fe1a8" d="M 0 0
L -3.5 0
" style="stroke: #000000; stroke-width: 0.8"/>
      </defs>
      <g>
       <use xlink:href="#m105f1fe1a8" x="43.78125" y="327.456875" style="stroke: #000000; stroke-width: 0.8"/>
      </g>
     </g>
     <g id="text_5">
      <!-- 0.0 -->
      <g transform="translate(20.878125 331.256094) scale(0.1 -0.1)">
       <defs>
        <path id="DejaVuSans-30" d="M 2034 4250
Q 1547 4250 1301 3770
Q 1056 3291 1056 2328
Q 1056 1369 1301 889
Q 1547 409 2034 409
Q 2525 409 2770 889
Q 3016 1369 3016 2328
Q 3016 3291 2770 3770
Q 2525 4250 2034 4250
z
M 2034 4750
Q 2819 4750 3233 4129
Q 3647 3509 3647 2328
Q 3647 1150 3233 529
Q 2819 -91 2034 -91
Q 1250 -91 836 529
Q 422 1150 422 2328
Q 422 3509 836 4129
Q 1250 4750 2034 4750
z
" transform="scale(0.015625)"/>
        <path id="DejaVuSans-2e" d="M 684 794
L 1344 794
L 1344 0
L 684 0
L 684 794
z
" transform="scale(0.015625)"/>
       </defs>
       <use xlink:href="#DejaVuSans-30"/>
       <use xlink:href="#DejaVuSans-2e" transform="translate(63.623047 0)"/>
       <use xlink:href="#DejaVuSans-30" transform="translate(95.410156 0)"/>
      </g>
     </g>
    </g>
    <g id="ytick_2">
     <g id="line2d_7">
      <path d="M 43.78125 266.429125
L 705.26125 266.429125
" clip-path="url(#p8c7d64fd58)" style="fill: none; stroke: #b0b0b0; stroke-opacity: 0.25; stroke-width: 0.8; stroke-linecap: square"/>
     </g>
     <g id="line2d_8">
      <g>
       <use xlink:href="#m105f1fe1a8" x="43.78125" y="266.429125" style="stroke: #000000; stroke-width: 0.8"/>
      </g>
     </g>
     <g id="text_6">
      <!-- 0.2 -->
      <g transform="translate(20.878125 270.228344) scale(0.1 -0.1)">
       <defs>
        <path id="DejaVuSans-32" d="M 1228 531
L 3431 531
L 3431 0
L 469 0
L 469 531
Q 828 903 1448 1529
Q 2069 2156 2228 2338
Q 2531 2678 2651 2914
Q 2772 3150 2772 3378
Q 2772 3750 2511 3984
Q 2250 4219 1831 4219
Q 1534 4219 1204 4116
Q 875 4013 500 3803
L 500 4441
Q 881 4594 1212 4672
Q 1544 4750 1819 4750
Q 2544 4750 2975 4387
Q 3406 4025 3406 3419
Q 3406 3131 3298 2873
Q 3191 2616 2906 2266
Q 2828 2175 2409 1742
Q 1991 1309 1228 531
z
" transform="scale(0.015625)"/>
       </defs>
       <use xlink:href="#DejaVuSans-30"/>
       <use xlink:href="#DejaVuSans-2e" transform="translate(63.623047 0)"/>
       <use xlink:href="#DejaVuSans-32" transform="translate(95.410156 0)"/>
      </g>
     </g>
    </g>
    <g id="ytick_3">
     <g id="line2d_9">
      <path d="M 43.78125 205.401375
L 705.26125 205.401375
" clip-path="url(#p8c7d64fd58)" style="fill: none; stroke: #b0b0b0; stroke-opacity: 0.25; stroke-width: 0.8; stroke-linecap: square"/>
     </g>
     <g id="line2d_10">
      <g>
       <use xlink:href="#m105f1fe1a8" x="43.78125" y="205.401375" style="stroke: #000000; stroke-width: 0.8"/>
      </g>
     </g>
     <g id="text_7">
      <!-- 0.4 -->
      <g transform="translate(20.878125 209.200594) scale(0.1 -0.1)">
       <defs>
        <path id="DejaVuSans-34" d="M 2419 4116
L 825 1625
L 2419 1625
L 2419 4116
z
M 2253 4666
L 3047 4666
L 3047 1625
L 3713 1625
L 3713 1100
L 3047 1100
L 3047 0
L 2419 0
L 2419 1100
L 313 1100
L 313 1709
L 2253 4666
z
" transform="scale(0.015625)"/>
       </defs>
       <use xlink:href="#DejaVuSans-30"/>
       <use xlink:href="#DejaVuSans-2e" transform="translate(63.623047 0)"/>
       <use xlink:href="#DejaVuSans-34" transform="translate(95.410156 0)"/>
      </g>
     </g>
    </g>
    <g id="ytick_4">
     <g id="line2d_11">
      <path d="M 43.78125 144.373625
L 705.26125 144.373625
" clip-path="url(#p8c7d64fd58)" style="fill: none; stroke: #b0b0b0; stroke-opacity: 0.25; stroke-width: 0.8; stroke-linecap: square"/>
     </g>
     <g id="line2d_12">
      <g>
       <use xlink:href="#m105f1fe1a8" x="43.78125" y="144.373625" style="stroke: #000000; stroke-width: 0.8"/>
      </g>
     </g>
     <g id="text_8">
      <!-- 0.6 -->
      <g transform="translate(20.878125 148.172844) scale(0.1 -0.1)">
       <defs>
        <path id="DejaVuSans-36" d="M 2113 2584
Q 1688 2584 1439 2293
Q 1191 2003 1191 1497
Q 1191 994 1439 701
Q 1688 409 2113 409
Q 2538 409 2786 701
Q 3034 994 3034 1497
Q 3034 2003 2786 2293
Q 2538 2584 2113 2584
z
M 3366 4563
L 3366 3988
Q 3128 4100 2886 4159
Q 2644 4219 2406 4219
Q 1781 4219 1451 3797
Q 1122 3375 1075 2522
Q 1259 2794 1537 2939
Q 1816 3084 2150 3084
Q 2853 3084 3261 2657
Q 3669 2231 3669 1497
Q 3669 778 3244 343
Q 2819 -91 2113 -91
Q 1303 -91 875 529
Q 447 1150 447 2328
Q 447 3434 972 4092
Q 1497 4750 2381 4750
Q 2619 4750 2861 4703
Q 3103 4656 3366 4563
z
" transform="scale(0.015625)"/>
       </defs>
       <use xlink:href="#DejaVuSans-30"/>
       <use xlink:href="#DejaVuSans-2e" transform="translate(63.623047 0)"/>
       <use xlink:href="#DejaVuSans-36" transform="translate(95.410156 0)"/>
      </g>
     </g>
    </g>
    <g id="ytick_5">
     <g id="line2d_13">
      <path d="M 43.78125 83.345875
L 705.26125 83.345875
" clip-path="url(#p8c7d64fd58)" style="fill: none; stroke: #b0b0b0; stroke-opacity: 0.25; stroke-width: 0.8; stroke-linecap: square"/>
     </g>
     <g id="line2d_14">
      <g>
       <use xlink:href="#m105f1fe1a8" x="43.78125" y="83.345875" style="stroke: #000000; stroke-width: 0.8"/>
      </g>
     </g>
     <g id="text_9">
      <!-- 0.8 -->
      <g transform="translate(20.878125 87.145094) scale(0.1 -0.1)">
       <defs>
        <path id="DejaVuSans-38" d="M 2034 2216
Q 1584 2216 1326 1975
Q 1069 1734 1069 1313
Q 1069 891 1326 650
Q 1584 409 2034 409
Q 2484 409 2743 651
Q 3003 894 3003 1313
Q 3003 1734 2745 1975
Q 2488 2216 2034 2216
z
M 1403 2484
Q 997 2584 770 2862
Q 544 3141 544 3541
Q 544 4100 942 4425
Q 1341 4750 2034 4750
Q 2731 4750 3128 4425
Q 3525 4100 3525 3541
Q 3525 3141 3298 2862
Q 3072 2584 2669 2484
Q 3125 2378 3379 2068
Q 3634 1759 3634 1313
Q 3634 634 3220 271
Q 2806 -91 2034 -91
Q 1263 -91 848 271
Q 434 634 434 1313
Q 434 1759 690 2068
Q 947 2378 1403 2484
z
M 1172 3481
Q 1172 3119 1398 2916
Q 1625 2713 2034 2713
Q 2441 2713 2670 2916
Q 2900 3119 2900 3481
Q 2900 3844 2670 4047
Q 2441 4250 2034 4250
Q 1625 4250 1398 4047
Q 1172 3844 1172 3481
z
" transform="scale(0.015625)"/>
       </defs>
       <use xlink:href="#DejaVuSans-30"/>
       <use xlink:href="#DejaVuSans-2e" transform="translate(63.623047 0)"/>
       <use xlink:href="#DejaVuSans-38" transform="translate(95.410156 0)"/>
      </g>
     </g>
    </g>
    <g id="ytick_6">
     <g id="line2d_15">
      <path d="M 43.78125 22.318125
L 705.26125 22.318125
" clip-path="url(#p8c7d64fd58)" style="fill: none; stroke: #b0b0b0; stroke-opacity: 0.25; stroke-width: 0.8; stroke-linecap: square"/>
     </g>
     <g id="line2d_16">
      <g>
       <use xlink:href="#m105f1fe1a8" x="43.78125" y="22.318125" style="stroke: #000000; stroke-width: 0.8"/>
      </g>
     </g>
     <g id="text_10">
      <!-- 1.0 -->
      <g transform="translate(20.878125 26.117344) scale(0.1 -0.1)">
       <defs>
        <path id="DejaVuSans-31" d="M 794 531
L 1825 531
L 1825 4091
L 703 3866
L 703 4441
L 1819 4666
L 2450 4666
L 2450 531
L 3481 531
L 3481 0
L 794 0
L 794 531
z
" transform="scale(0.015625)"/>
       </defs>
       <use xlink:href="#DejaVuSans-31"/>
       <use xlink:href="#DejaVuSans-2e" transform="translate(63.623047 0)"/>
       <use xlink:href="#DejaVuSans-30" transform="translate(95.410156 0)"/>
      </g>
     </g>
    </g>
    <g id="text_11">
     <!-- Macro F1 por fold/janela -->
     <g transform="translate(14.798438 235.349219) rotate(-90) scale(0.1 -0.1)">
      <defs>
       <path id="DejaVuSans-4d" d="M 628 4666
L 1569 4666
L 2759 1491
L 3956 4666
L 4897 4666
L 4897 0
L 4281 0
L 4281 4097
L 3078 897
L 2444 897
L 1241 4097
L 1241 0
L 628 0
L 628 4666
z
" transform="scale(0.015625)"/>
       <path id="DejaVuSans-63" d="M 3122 3366
L 3122 2828
Q 2878 2963 2633 3030
Q 2388 3097 2138 3097
Q 1578 3097 1268 2742
Q 959 2388 959 1747
Q 959 1106 1268 751
Q 1578 397 2138 397
Q 2388 397 2633 464
Q 2878 531 3122 666
L 3122 134
Q 2881 22 2623 -34
Q 2366 -91 2075 -91
Q 1284 -91 818 406
Q 353 903 353 1747
Q 353 2603 823 3093
Q 1294 3584 2113 3584
Q 2378 3584 2631 3529
Q 2884 3475 3122 3366
z
" transform="scale(0.015625)"/>
       <path id="DejaVuSans-20" transform="scale(0.015625)"/>
       <path id="DejaVuSans-46" d="M 628 4666
L 3309 4666
L 3309 4134
L 1259 4134
L 1259 2759
L 3109 2759
L 3109 2228
L 1259 2228
L 1259 0
L 628 0
L 628 4666
z
" transform="scale(0.015625)"/>
       <path id="DejaVuSans-70" d="M 1159 525
L 1159 -1331
L 581 -1331
L 581 3500
L 1159 3500
L 1159 2969
Q 1341 3281 1617 3432
Q 1894 3584 2278 3584
Q 2916 3584 3314 3078
Q 3713 2572 3713 1747
Q 3713 922 3314 415
Q 2916 -91 2278 -91
Q 1894 -91 1617 61
Q 1341 213 1159 525
z
M 3116 1747
Q 3116 2381 2855 2742
Q 2594 3103 2138 3103
Q 1681 3103 1420 2742
Q 1159 2381 1159 1747
Q 1159 1113 1420 752
Q 1681 391 2138 391
Q 2594 391 2855 752
Q 3116 1113 3116 1747
z
" transform="scale(0.015625)"/>
       <path id="DejaVuSans-2f" d="M 1625 4666
L 2156 4666
L 531 -594
L 0 -594
L 1625 4666
z
" transform="scale(0.015625)"/>
       <path id="DejaVuSans-6a" d="M 603 3500
L 1178 3500
L 1178 -63
Q 1178 -731 923 -1031
Q 669 -1331 103 -1331
L -116 -1331
L -116 -844
L 38 -844
Q 366 -844 484 -692
Q 603 -541 603 -63
L 603 3500
z
M 603 4863
L 1178 4863
L 1178 4134
L 603 4134
L 603 4863
z
" transform="scale(0.015625)"/>
      </defs>
      <use xlink:href="#DejaVuSans-4d"/>
      <use xlink:href="#DejaVuSans-61" transform="translate(86.279297 0)"/>
      <use xlink:href="#DejaVuSans-63" transform="translate(147.558594 0)"/>
      <use xlink:href="#DejaVuSans-72" transform="translate(202.539062 0)"/>
      <use xlink:href="#DejaVuSans-6f" transform="translate(241.402344 0)"/>
      <use xlink:href="#DejaVuSans-20" transform="translate(302.583984 0)"/>
      <use xlink:href="#DejaVuSans-46" transform="translate(334.371094 0)"/>
      <use xlink:href="#DejaVuSans-31" transform="translate(391.890625 0)"/>
      <use xlink:href="#DejaVuSans-20" transform="translate(455.513672 0)"/>
      <use xlink:href="#DejaVuSans-70" transform="translate(487.300781 0)"/>
      <use xlink:href="#DejaVuSans-6f" transform="translate(550.777344 0)"/>
      <use xlink:href="#DejaVuSans-72" transform="translate(611.958984 0)"/>
      <use xlink:href="#DejaVuSans-20" transform="translate(653.072266 0)"/>
      <use xlink:href="#DejaVuSans-66" transform="translate(684.859375 0)"/>
      <use xlink:href="#DejaVuSans-6f" transform="translate(720.064453 0)"/>
      <use xlink:href="#DejaVuSans-6c" transform="translate(781.246094 0)"/>
      <use xlink:href="#DejaVuSans-64" transform="translate(809.029297 0)"/>
      <use xlink:href="#DejaVuSans-2f" transform="translate(872.505859 0)"/>
      <use xlink:href="#DejaVuSans-6a" transform="translate(906.197266 0)"/>
      <use xlink:href="#DejaVuSans-61" transform="translate(933.980469 0)"/>
      <use xlink:href="#DejaVuSans-6e" transform="translate(995.259766 0)"/>
      <use xlink:href="#DejaVuSans-65" transform="translate(1058.638672 0)"/>
      <use xlink:href="#DejaVuSans-6c" transform="translate(1120.162109 0)"/>
      <use xlink:href="#DejaVuSans-61" transform="translate(1147.945312 0)"/>
     </g>
    </g>
   </g>
   <g id="line2d_17">
    <path d="M 89.258 314.654935
L 163.6745 314.654935
L 163.6745 293.076251
L 89.258 293.076251
L 89.258 314.654935
" clip-path="url(#p8c7d64fd58)" style="fill: none; stroke: #000000; stroke-linecap: square"/>
   </g>
   <g id="line2d_18">
    <path d="M 126.46625 314.654935
L 126.46625 316.724492
" clip-path="url(#p8c7d64fd58)" style="fill: none; stroke: #000000; stroke-linecap: square"/>
   </g>
   <g id="line2d_19">
    <path d="M 126.46625 293.076251
L 126.46625 275.112285
" clip-path="url(#p8c7d64fd58)" style="fill: none; stroke: #000000; stroke-linecap: square"/>
   </g>
   <g id="line2d_20">
    <path d="M 107.862125 316.724492
L 145.070375 316.724492
" clip-path="url(#p8c7d64fd58)" style="fill: none; stroke: #000000; stroke-linecap: square"/>
   </g>
   <g id="line2d_21">
    <path d="M 107.862125 275.112285
L 145.070375 275.112285
" clip-path="url(#p8c7d64fd58)" style="fill: none; stroke: #000000; stroke-linecap: square"/>
   </g>
   <g id="line2d_22"/>
   <g id="line2d_23">
    <path d="M 254.628 200.912989
L 329.0445 200.912989
L 329.0445 169.862675
L 254.628 169.862675
L 254.628 200.912989
" clip-path="url(#p8c7d64fd58)" style="fill: none; stroke: #000000; stroke-linecap: square"/>
   </g>
   <g id="line2d_24">
    <path d="M 291.83625 200.912989
L 291.83625 216.589155
" clip-path="url(#p8c7d64fd58)" style="fill: none; stroke: #000000; stroke-linecap: square"/>
   </g>
   <g id="line2d_25">
    <path d="M 291.83625 169.862675
L 291.83625 166.697251
" clip-path="url(#p8c7d64fd58)" style="fill: none; stroke: #000000; stroke-linecap: square"/>
   </g>
   <g id="line2d_26">
    <path d="M 273.232125 216.589155
L 310.440375 216.589155
" clip-path="url(#p8c7d64fd58)" style="fill: none; stroke: #000000; stroke-linecap: square"/>
   </g>
   <g id="line2d_27">
    <path d="M 273.232125 166.697251
L 310.440375 166.697251
" clip-path="url(#p8c7d64fd58)" style="fill: none; stroke: #000000; stroke-linecap: square"/>
   </g>
   <g id="line2d_28"/>
   <g id="line2d_29">
    <path d="M 419.998 214.249515
L 494.4145 214.249515
L 494.4145 175.458977
L 419.998 175.458977
L 419.998 214.249515
" clip-path="url(#p8c7d64fd58)" style="fill: none; stroke: #000000; stroke-linecap: square"/>
   </g>
   <g id="line2d_30">
    <path d="M 457.20625 214.249515
L 457.20625 243.739321
" clip-path="url(#p8c7d64fd58)" style="fill: none; stroke: #000000; stroke-linecap: square"/>
   </g>
   <g id="line2d_31">
    <path d="M 457.20625 175.458977
L 457.20625 170.638339
" clip-path="url(#p8c7d64fd58)" style="fill: none; stroke: #000000; stroke-linecap: square"/>
   </g>
   <g id="line2d_32">
    <path d="M 438.602125 243.739321
L 475.810375 243.739321
" clip-path="url(#p8c7d64fd58)" style="fill: none; stroke: #000000; stroke-linecap: square"/>
   </g>
   <g id="line2d_33">
    <path d="M 438.602125 170.638339
L 475.810375 170.638339
" clip-path="url(#p8c7d64fd58)" style="fill: none; stroke: #000000; stroke-linecap: square"/>
   </g>
   <g id="line2d_34"/>
   <g id="line2d_35">
    <path d="M 585.368 198.598035
L 659.7845 198.598035
L 659.7845 169.871208
L 585.368 169.871208
L 585.368 198.598035
" clip-path="url(#p8c7d64fd58)" style="fill: none; stroke: #000000; stroke-linecap: square"/>
   </g>
   <g id="line2d_36">
    <path d="M 622.57625 198.598035
L 622.57625 214.747815
" clip-path="url(#p8c7d64fd58)" style="fill: none; stroke: #000000; stroke-linecap: square"/>
   </g>
   <g id="line2d_37">
    <path d="M 622.57625 169.871208
L 622.57625 166.385421
" clip-path="url(#p8c7d64fd58)" style="fill: none; stroke: #000000; stroke-linecap: square"/>
   </g>
   <g id="line2d_38">
    <path d="M 603.972125 214.747815
L 641.180375 214.747815
" clip-path="url(#p8c7d64fd58)" style="fill: none; stroke: #000000; stroke-linecap: square"/>
   </g>
   <g id="line2d_39">
    <path d="M 603.972125 166.385421
L 641.180375 166.385421
" clip-path="url(#p8c7d64fd58)" style="fill: none; stroke: #000000; stroke-linecap: square"/>
   </g>
   <g id="line2d_40"/>
   <g id="line2d_41">
    <path d="M 89.258 301.911985
L 163.6745 301.911985
" clip-path="url(#p8c7d64fd58)" style="fill: none; stroke: #ff7f0e"/>
   </g>
   <g id="line2d_42">
    <defs>
     <path id="m7d93534546" d="M 0 -3
L -3 3
L 3 3
z
" style="stroke: #2ca02c; stroke-linejoin: miter"/>
    </defs>
    <g clip-path="url(#p8c7d64fd58)">
     <use xlink:href="#m7d93534546" x="126.46625" y="300.698868" style="fill: #2ca02c; stroke: #2ca02c; stroke-linejoin: miter"/>
    </g>
   </g>
   <g id="line2d_43">
    <path d="M 254.628 181.301973
L 329.0445 181.301973
" clip-path="url(#p8c7d64fd58)" style="fill: none; stroke: #ff7f0e"/>
   </g>
   <g id="line2d_44">
    <g clip-path="url(#p8c7d64fd58)">
     <use xlink:href="#m7d93534546" x="291.83625" y="186.751311" style="fill: #2ca02c; stroke: #2ca02c; stroke-linejoin: miter"/>
    </g>
   </g>
   <g id="line2d_45">
    <path d="M 419.998 197.469086
L 494.4145 197.469086
" clip-path="url(#p8c7d64fd58)" style="fill: none; stroke: #ff7f0e"/>
   </g>
   <g id="line2d_46">
    <g clip-path="url(#p8c7d64fd58)">
     <use xlink:href="#m7d93534546" x="457.20625" y="198.27948" style="fill: #2ca02c; stroke: #2ca02c; stroke-linejoin: miter"/>
    </g>
   </g>
   <g id="line2d_47">
    <path d="M 585.368 179.621399
L 659.7845 179.621399
" clip-path="url(#p8c7d64fd58)" style="fill: none; stroke: #ff7f0e"/>
   </g>
   <g id="line2d_48">
    <g clip-path="url(#p8c7d64fd58)">
     <use xlink:href="#m7d93534546" x="622.57625" y="185.671286" style="fill: #2ca02c; stroke: #2ca02c; stroke-linejoin: miter"/>
    </g>
   </g>
   <g id="patch_3">
    <path d="M 43.78125 327.456875
L 43.78125 22.318125
" style="fill: none; stroke: #000000; stroke-width: 0.8; stroke-linejoin: miter; stroke-linecap: square"/>
   </g>
   <g id="patch_4">
    <path d="M 705.26125 327.456875
L 705.26125 22.318125
" style="fill: none; stroke: #000000; stroke-width: 0.8; stroke-linejoin: miter; stroke-linecap: square"/>
   </g>
   <g id="patch_5">
    <path d="M 43.78125 327.456875
L 705.26125 327.456875
" style="fill: none; stroke: #000000; stroke-width: 0.8; stroke-linejoin: miter; stroke-linecap: square"/>
   </g>
   <g id="patch_6">
    <path d="M 43.78125 22.318125
L 705.26125 22.318125
" style="fill: none; stroke: #000000; stroke-width: 0.8; stroke-linejoin: miter; stroke-linecap: square"/>
   </g>
   <g id="text_12">
    <!-- G1: variabilidade entre sessoes e janelas -->
    <g transform="translate(251.237188 16.318125) scale(0.12 -0.12)">
     <defs>
      <path id="DejaVuSans-47" d="M 3809 666
L 3809 1919
L 2778 1919
L 2778 2438
L 4434 2438
L 4434 434
Q 4069 175 3628 42
Q 3188 -91 2688 -91
Q 1594 -91 976 548
Q 359 1188 359 2328
Q 359 3472 976 4111
Q 1594 4750 2688 4750
Q 3144 4750 3555 4637
Q 3966 4525 4313 4306
L 4313 3634
Q 3963 3931 3569 4081
Q 3175 4231 2741 4231
Q 1884 4231 1454 3753
Q 1025 3275 1025 2328
Q 1025 1384 1454 906
Q 1884 428 2741 428
Q 3075 428 3337 486
Q 3600 544 3809 666
z
" transform="scale(0.015625)"/>
      <path id="DejaVuSans-3a" d="M 750 794
L 1409 794
L 1409 0
L 750 0
L 750 794
z
M 750 3309
L 1409 3309
L 1409 2516
L 750 2516
L 750 3309
z
" transform="scale(0.015625)"/>
     </defs>
     <use xlink:href="#DejaVuSans-47"/>
     <use xlink:href="#DejaVuSans-31" transform="translate(77.490234 0)"/>
     <use xlink:href="#DejaVuSans-3a" transform="translate(141.113281 0)"/>
     <use xlink:href="#DejaVuSans-20" transform="translate(174.804688 0)"/>
     <use xlink:href="#DejaVuSans-76" transform="translate(206.591797 0)"/>
     <use xlink:href="#DejaVuSans-61" transform="translate(265.771484 0)"/>
     <use xlink:href="#DejaVuSans-72" transform="translate(327.050781 0)"/>
     <use xlink:href="#DejaVuSans-69" transform="translate(368.164062 0)"/>
     <use xlink:href="#DejaVuSans-61" transform="translate(395.947266 0)"/>
     <use xlink:href="#DejaVuSans-62" transform="translate(457.226562 0)"/>
     <use xlink:href="#DejaVuSans-69" transform="translate(520.703125 0)"/>
     <use xlink:href="#DejaVuSans-6c" transform="translate(548.486328 0)"/>
     <use xlink:href="#DejaVuSans-69" transform="translate(576.269531 0)"/>
     <use xlink:href="#DejaVuSans-64" transform="translate(604.052734 0)"/>
     <use xlink:href="#DejaVuSans-61" transform="translate(667.529297 0)"/>
     <use xlink:href="#DejaVuSans-64" transform="translate(728.808594 0)"/>
     <use xlink:href="#DejaVuSans-65" transform="translate(792.285156 0)"/>
     <use xlink:href="#DejaVuSans-20" transform="translate(853.808594 0)"/>
     <use xlink:href="#DejaVuSans-65" transform="translate(885.595703 0)"/>
     <use xlink:href="#DejaVuSans-6e" transform="translate(947.119141 0)"/>
     <use xlink:href="#DejaVuSans-74" transform="translate(1010.498047 0)"/>
     <use xlink:href="#DejaVuSans-72" transform="translate(1049.707031 0)"/>
     <use xlink:href="#DejaVuSans-65" transform="translate(1088.570312 0)"/>
     <use xlink:href="#DejaVuSans-20" transform="translate(1150.09375 0)"/>
     <use xlink:href="#DejaVuSans-73" transform="translate(1181.880859 0)"/>
     <use xlink:href="#DejaVuSans-65" transform="translate(1233.980469 0)"/>
     <use xlink:href="#DejaVuSans-73" transform="translate(1295.503906 0)"/>
     <use xlink:href="#DejaVuSans-73" transform="translate(1347.603516 0)"/>
     <use xlink:href="#DejaVuSans-6f" transform="translate(1399.703125 0)"/>
     <use xlink:href="#DejaVuSans-65" transform="translate(1460.884766 0)"/>
     <use xlink:href="#DejaVuSans-73" transform="translate(1522.408203 0)"/>
     <use xlink:href="#DejaVuSans-20" transform="translate(1574.507812 0)"/>
     <use xlink:href="#DejaVuSans-65" transform="translate(1606.294922 0)"/>
     <use xlink:href="#DejaVuSans-20" transform="translate(1667.818359 0)"/>
     <use xlink:href="#DejaVuSans-6a" transform="translate(1699.605469 0)"/>
     <use xlink:href="#DejaVuSans-61" transform="translate(1727.388672 0)"/>
     <use xlink:href="#DejaVuSans-6e" transform="translate(1788.667969 0)"/>
     <use xlink:href="#DejaVuSans-65" transform="translate(1852.046875 0)"/>
     <use xlink:href="#DejaVuSans-6c" transform="translate(1913.570312 0)"/>
     <use xlink:href="#DejaVuSans-61" transform="translate(1941.353516 0)"/>
     <use xlink:href="#DejaVuSans-73" transform="translate(2002.632812 0)"/>
    </g>
   </g>
  </g>
 </g>
 <defs>
  <clipPath id="p8c7d64fd58">
   <rect x="43.78125" y="22.318125" width="661.48" height="305.13875"/>
  </clipPath>
 </defs>
</svg>
